<?xml version="1.0" standalone="no"?>
<!DOCTYPE svg PUBLIC "-//W3C//DTD SVG 20010904//EN"
 "http://www.w3.org/TR/2001/REC-SVG-20010904/DTD/svg10.dtd">
<svg version="1.0" xmlns="http://www.w3.org/2000/svg"
 width="512.000000pt" height="512.000000pt" viewBox="0 0 512.000000 512.000000"
 preserveAspectRatio="xMidYMid meet">
<metadata>
Created by potrace 1.11, written by Peter Selinger 2001-2013
</metadata>
<g transform="translate(0.000000,512.000000) scale(0.100000,-0.100000)"
fill="#000000" stroke="none">
<path d="M356 4030 c-94 -24 -171 -117 -193 -235 -3 -11 -5 -568 -7 -1238 l-2
-1217 23 -67 c27 -81 63 -127 128 -164 59 -33 135 -41 212 -24 78 18 128 55
170 125 45 75 47 98 48 648 1 358 5 526 12 530 12 8 1230 8 1237 1 2 -2 6 -78
9 -169 4 -91 9 -181 12 -200 20 -132 28 -178 36 -200 5 -14 10 -34 12 -45 2
-11 7 -29 11 -40 5 -11 17 -45 28 -75 57 -151 182 -308 314 -393 72 -46 175
-97 197 -97 7 0 17 -4 23 -9 20 -19 250 -65 384 -77 143 -13 429 -7 520 11
244 48 377 105 520 224 166 140 274 323 315 541 2 11 18 126 21 150 15 127 26
1070 12 1070 -4 0 -13 -6 -20 -13 -23 -22 -244 -177 -253 -177 -2 0 -23 -13
-47 -29 -61 -41 -147 -85 -207 -106 l-51 -19 -1 -270 c0 -338 -5 -401 -35
-521 -72 -281 -258 -408 -589 -406 -120 1 -122 2 -209 20 -170 37 -292 139
-351 294 -61 162 -63 204 -64 1092 -1 440 -4 814 -6 830 -11 79 -42 149 -83
188 -56 53 -110 72 -202 72 -94 -1 -140 -16 -197 -68 -29 -27 -66 -91 -81
-141 -3 -12 -8 -230 -9 -486 -2 -255 -6 -466 -9 -469 -9 -9 -1236 -6 -1241 3
-3 5 -7 214 -8 465 -1 282 -6 467 -13 486 -32 95 -79 154 -151 190 -40 20
-160 28 -215 15z"/>
<path d="M4043 4029 c-102 -18 -181 -97 -207 -208 -11 -46 -15 -132 -16 -316
l-1 -253 98 50 c152 78 281 169 386 273 85 84 103 108 98 137 0 4 -3 26 -6 50
-11 91 -28 131 -85 188 -72 74 -155 98 -267 79z"/>
<path d="M4687 3988 c-40 -8 -86 -36 -87 -53 0 -5 -44 -75 -97 -154 -103 -153
-188 -252 -288 -333 -33 -26 -67 -54 -75 -61 -24 -21 -117 -76 -220 -130 -52
-28 -97 -52 -100 -54 -6 -6 -6 -423 1 -423 18 0 111 38 152 62 26 15 50 28 52
28 20 0 378 248 397 275 4 5 9 7 12 4 5 -5 8 -189 5 -259 -1 -21 0 -139 2
-175 0 -16 1 -36 0 -42 -1 -7 -1 -19 -2 -25 -1 -14 0 -199 1 -257 0 -19 3 -38
6 -42 2 -4 1 -10 -4 -13 -5 -3 -7 -20 -5 -38 2 -18 3 -53 2 -78 0 -25 0 -56 1
-70 0 -14 2 -218 3 -455 2 -425 3 -431 25 -481 43 -95 132 -154 233 -154 154
0 244 96 266 286 6 53 9 2337 3 2409 -3 37 -29 111 -49 145 -45 72 -141 108
-234 88z"/>
</g>
</svg>
